<?xml version="1.0" encoding="utf-8"?>
<!-- Generator: Adobe Illustrator 22.1.0, SVG Export Plug-In . SVG Version: 6.00 Build 0)  -->
<svg version="1.1" id="alien-3" xmlns="http://www.w3.org/2000/svg" xmlns:xlink="http://www.w3.org/1999/xlink" x="0px" y="0px"
	 viewBox="0 0 59.6 78" style="enable-background:new 0 0 59.6 78;" xml:space="preserve">
<style type="text/css">
	.st0{fill:#FA0634;stroke:#000000;stroke-width:2;stroke-miterlimit:10;}
	.st1{stroke:#000000;stroke-width:2;stroke-miterlimit:10;}
	.st2{fill:#FCFCFC;stroke:#000000;stroke-width:2;stroke-miterlimit:10;}
	.st3{fill:#020000;stroke:#000000;stroke-width:2;stroke-miterlimit:10;}
</style>
<path id="head" class="st0" d="M21.9,12.7c0,0-14.4,3.1-11,16.8c0,0-2.5,10.6,9.6,12.1c0,0,14.5,3.3,15.4-12.4
	C35.9,29.2,37.9,11.2,21.9,12.7z"/>
<path id="left-horn" class="st0" d="M14.6,13.9c0,0-6.7-6.5-5.5-9.5s-6.9,6.7,1.2,15.6L14.6,13.9z"/>
<path id="right-horn" class="st0" d="M31.5,12.6c0,0,6.4-4.4,5.1-9.4c0,0,8.4,8.3,0.2,15.8L31.5,12.6z"/>
<path id="belly" class="st0" d="M33,39.2c0,0,14.4,10.4,3.6,23.6s-23.9,1.6-23.9,1.6s-7-5.8-3.9-13.8c0,0-0.3-7.8,4.6-9.8
	C13.5,40.9,32.9,44.2,33,39.2z"/>
<path id="right-hand" class="st0" d="M36.9,40.1c0,0,7.5-7.1,10.5,0c0,0,4.5,3.5,0,8.1s-6.1,3.5-6.1,3.5L36.9,40.1z"/>
<path id="left-hand" class="st0" d="M11.4,41.1c0,0-7.8-4.5-9.8,1.9c0,0-2.3,5.5,1.6,8.9c0,0,4,3.4,4.8,1.1L11.4,41.1z"/>
<path id="tail" class="st1" d="M32.9,68.2l7.7,2.5c0,0,6.9,9.8,14.3,0l3,4.3l0.6-11.8l-10.1,2.4l4.4,3.5l-2.4,2.5
	c0,0-2.1,4.7-8.5-2.5l-2.1-8.2L32.9,68.2z"/>
<path id="eye" class="st2" d="M17.5,39.5c0,0-0.9-16.2,3.8-16.5s2.9-1.6,4,1s6.4,10.8,4.5,15.1S17.5,39.5,17.5,39.5z"/>
<path id="pupil" class="st3" d="M20.1,39.2c0,0,0.1-10.1,1.5-10.1s2.2,0,2.2,0s4.8,9,5,10.1S22.8,42.4,20.1,39.2z"/>
</svg>
