<?xml version="1.0" encoding="utf-8"?>
<!-- Generator: Adobe Illustrator 22.1.0, SVG Export Plug-In . SVG Version: 6.00 Build 0)  -->
<svg version="1.1" id="alien2" xmlns="http://www.w3.org/2000/svg" xmlns:xlink="http://www.w3.org/1999/xlink" x="0px" y="0px"
	 viewBox="0 0 68.9 56.9" style="enable-background:new 0 0 68.9 56.9;" xml:space="preserve">
<style type="text/css">
	.st0{fill:#F1FF0D;stroke:#000000;stroke-width:2;stroke-miterlimit:10;}
	.st1{stroke:#000000;stroke-width:2;stroke-miterlimit:10;}
	.st2{fill:#FFFFFF;stroke:#000000;stroke-miterlimit:10;}
	.st3{stroke:#000000;stroke-miterlimit:10;}
</style>
<path id="bodyBG" class="st0" d="M17,24.2c0,0-21.6-13.4,0-22.3c0,0,9.1-3.5,13.4,7.3l1.5,6.4c0,0,3.3,2.2,4.8,0.6
	c0,0,1.5-18.3,13.8-14.8c0,0,9.5-1.5,12,3.8c0,0,2.6,8.3-1.6,12.4s-7.1,6.6-7.1,6.6l2.9,3.3c0,0,11.3,9.5,11.4,16.9
	s-4.6,10.8-4.6,10.8s-5.6,1.3-6.9-1.1s-1-6.9-1-6.9l-2.5,7.1c0,0-5.9,2.6-10.3-1l-1.4-6.5c0,0-0.8,7.4-7.4,8.7s-8.8-1.1-8.8-1.1v-6
	c0,0-3,8.2-8.4,7.5s-3.8-2-3.8-2l0.9-6.6c0,0-2.5,8.8-8.3,8.6c-5.8-0.1-4.5-7.3-4.5-7.3S7.7,24.4,17,24.2z"/>
<path id="left-nose" class="st1" d="M29.1,28.5l-2.6,3.9c0,0,0.3,2.3,1.3,1s2.7-4.9,2.7-4.9S29.7,27.6,29.1,28.5z"/>
<path id="right-nose" class="st1" d="M39.4,29.2l1.6,3.5c0,0,3.5,1.9,2.4-1.8l-1.9-2.9C41.5,28.1,38.6,27.6,39.4,29.2z"/>
<path id="mouth" d="M31.4,37.5h6c0,0-0.9,5.8-3,5.6S31.4,37.5,31.4,37.5z"/>
<path id="l-outer-eye" class="st2" d="M20.7,1.9c0,0-8.6,16.3,8.4,15.4C29.1,17.2,34,3.7,20.7,1.9z"/>
<path id="r-outer-eye" class="st2" d="M39.2,16.1c0,0,14,6.6,13.5-14.3C52.7,1.9,37.5-1.8,39.2,16.1z"/>
<path id="l-inner-eye" class="st2" d="M24.3,2.8c0,0-7.7,12.6,5.3,12.6C29.6,15.4,32.6,6,24.3,2.8z"/>
<path id="r-inner-eye" class="st2" d="M39.1,14.5c0,0,11.1,1.3,7.5-11.7l-0.7-1.2C45.9,1.6,38.8,3.5,39.1,14.5z"/>
<path id="left-pupil" class="st3" d="M27.2,5.4c0,0-6.3,5.6,2.1,7.5C29.4,12.9,31.2,8.3,27.2,5.4z"/>
<path id="right-pupil" class="st3" d="M39.2,12c0,0,10.7-0.4,2.2-6.6L39.2,12z"/>
</svg>
