<?xml version="1.0" encoding="utf-8"?>
<!-- Generator: Adobe Illustrator 22.1.0, SVG Export Plug-In . SVG Version: 6.00 Build 0)  -->
<svg id="alien1" version="1.1" id="alien1" xmlns="http://www.w3.org/2000/svg" xmlns:xlink="http://www.w3.org/1999/xlink" x="0px" y="0px"
	 viewBox="0 0 72.1 74.3" style="enable-background:new 0 0 72.1 74.3;" xml:space="preserve">
<style type="text/css">
	.st0{fill:#0CF248;stroke:#000000;stroke-width:2;stroke-miterlimit:10;}
	.st1{fill:#FFFFFF;stroke:#000000;stroke-width:2;stroke-miterlimit:10;}
	.st2{stroke:#000000;stroke-width:2;stroke-miterlimit:10;}
	#alien1:hover {fill:white}

</style>
<path id="body" class="st0" d="M19.8,39.4c0,0-4.5-18.5,8.8-18.8c0,0,6-2.3,5.3-4.7c0,0,2-6,3.3-6l1-2.8c0,0,1.2-10.2,8.7-4.2
	c0,0,4.8,8.5-4.5,8.3l-2.7,6.3c0,0,10.8,0.8,11.3,2.6c0,0,4.2,9.2,1.5,18l10.8-10.2c0,0,7.7,0,3.5,9.2c0,0-0.2,4.8-7.8,9
	s3.8,3.5,3.8,3.5l5.2,1.3c0,0,5.6,4.3,1.3,6.3c-4.3,2-12.7,0-12.7,0l-3.5,0.9c0,0,5.8,12.3,4.3,14.3s-9.2-0.8-9.2-0.8l-8.3-7.3
	c0,0-3.2-2.5-5,0.8c-1.8,3.3-5.8,6.5-5.8,6.5s-10.5,4.3-11.2-1.5c-0.7-5.8,6.3-9.7,6.3-9.7l-7.7,0.7c0,0-13.5,1-15.3-6.2
	c0,0-1.8-4.5,2-4.2c3.8,0.3,8.5,0.8,8.5,0.8s2.7-2-0.3-4.7c-3-2.7-11.3-10-8.8-12.7c2.5-2.7,3.2-3.3,4.8-1.7
	c1.7,1.7,5.2,4.4,5.2,4.4S18.6,44.4,19.8,39.4z"/>
<path id="eye-whiteL" class="st1" d="M34.4,29.2c0,0-6-3-7.7,1.2s0,9.5,0,9.5s6.2,2,7-1S36.3,37.1,34.4,29.2z"/>
<path id="eye-whiteR" class="st1" d="M45.9,37.9c0,0,3.8-7.8-1-8.8s-9.7,0.7-9.7,0.7v9C35.3,38.7,44.7,41.5,45.9,37.9z"/>
<path id="teeth" class="st1" d="M32.1,46.2l3.2,0.7v4.8h6.1v-5.5l3.3,4.2l4.5-3.3l-5.3-2.5l3.6-2.5C47.4,42.1,38.1,48.1,32.1,46.2z"
	/>
<path id="eye-left" class="st2" d="M27.9,39.8c0,0,0.3-8,1.8-7.2c1.5,0.8,4.3,2.5,3.3,5.2C32.1,40.4,27.9,39.8,27.9,39.8z"/>
<path id="eye-right" class="st2" d="M37.3,39.2c0,0,1-6.6,2-6.7c1-0.1,2.2-1.1,3.2,0c1,1.1,5.7,3.7,3.5,5.4
	C43.7,39.6,37.3,39.2,37.3,39.2z"/>
</svg>
