<?xml version="1.0" encoding="utf-8"?>
<!-- Generator: Adobe Illustrator 22.1.0, SVG Export Plug-In . SVG Version: 6.00 Build 0)  -->
<svg version="1.1" id="alien4" xmlns="http://www.w3.org/2000/svg" xmlns:xlink="http://www.w3.org/1999/xlink" x="0px" y="0px"
	 viewBox="0 0 112.4 154.8" style="enable-background:new 0 0 112.4 154.8;" xml:space="preserve">
<style type="text/css">
	.st0{fill:#DE5AF6;stroke:#000000;stroke-width:4;stroke-miterlimit:10;}
	.st1{fill:#FFFFFF;stroke:#000000;stroke-width:3;stroke-miterlimit:10;}
	.st2{fill:#020000;stroke:#000000;stroke-width:2;stroke-miterlimit:10;}
	.st3{fill:#F9F7F7;stroke:#000000;stroke-width:2;stroke-miterlimit:10;}
	.st4{fill:#FF05AA;}
	.st5{fill:none;stroke:#000000;stroke-width:2;stroke-miterlimit:10;}
</style>
<path id="bodybg" class="st0" d="M7,71.2c0,0-18.3-50.5,18.3-61.8c0,0,31-16.8,46.5,0c0,0,26.8,16.5,20.3,39.5c0,0-3.5,26.5,2.3,30
	c0,0,19,20,15.8,38s-10.5,14-10.5,14s-9.8-5.8-9.8-11c0,0-5,20-10.3,21.3s-9.3,0-9.3,0s-6-6.3-8.8-11.3l-14.3,21.5
	c0,0-7.5,5.3-12.8-5.3c0,0-9.3-4.8-8-10.5l1.3-20l-12.2,8c0,0-16.4,3-13.1-13.5s9.3-20.8,9.3-20.8S11,72.9,7,71.2z"/>
<path id="eye-white" class="st1" d="M32.3,26.2c0,0-13.3,14.5-2.3,31.2c0,0,11.5,15.5,23.8,7.5c0,0,19-8.5,13.8-22.5
	c0,0-2-15.5-16.3-16.2C51.3,26.2,48.5,20.9,32.3,26.2z"/>
<path id="pupil" class="st2" d="M39.5,34.7c0,0-10.5,15-1.5,24.8c0,0,19,8,22.5-5.3c0,0,3.5-19.3-7.3-22
	C53.3,32.2,44.5,27.4,39.5,34.7z"/>
<path id="tiny-eye-white" class="st3" d="M49,43.9c0,0-4.1,2-1.3,5.5c2.8,3.5,6.8,0,6.8,0S54.8,42.9,49,43.9z"/>
<path id="tongue" class="st4" d="M58,77.7c0,0,6,14,11,8c0,0,6-10.5,2.5-15.5C71.5,70.2,61,76.9,58,77.7z"/>
<path id="smile" class="st5" d="M46.7,77.9c0,0,8.3,2.8,18.1-3.9c3.2-2.2,6.7-5.5,10-10.3"/>
<path id="tongue-crease" class="st5" d="M67.5,82.2c-0.5,1.8,3.1-8.1-2.7-8.2"/>
</svg>
