<?xml version="1.0" encoding="utf-8"?>
<!-- Generator: Adobe Illustrator 22.1.0, SVG Export Plug-In . SVG Version: 6.00 Build 0)  -->
<svg version="1.1" id="alien5" xmlns="http://www.w3.org/2000/svg" xmlns:xlink="http://www.w3.org/1999/xlink" x="0px" y="0px"
	 viewBox="0 0 188.9 145.2" style="enable-background:new 0 0 188.9 145.2;" xml:space="preserve">
<style type="text/css">
	.st0{fill:#FF3FD0;stroke:#000000;stroke-width:3;stroke-miterlimit:10;}
	.st1{stroke:#000000;stroke-width:3;stroke-miterlimit:10;}
	.st2{fill:none;stroke:#000000;stroke-width:3;stroke-miterlimit:10;}
</style>
<polygon id="bodybg" class="st0" points="6.9,48 42.9,49.7 31.6,17.3 68.6,40.3 83.6,4.7 93.3,41.7 132.9,13.7 125.9,49.7 
	174.3,45.7 149.6,69.7 184.6,88.3 148.9,96 151.6,136.7 127.9,98.7 110.6,139 107.3,96 78.6,139 70.9,100.3 41.9,121.7 53.6,84 
	6.9,88 43.3,68 "/>
<path id="lense-left" class="st1" d="M64.9,56.7h18.7c0,0,4.7,21-6.3,18.7S64.9,82.3,64.9,56.7z"/>
<path id="lense-right" class="st1" d="M95.8,55h18.7c0,0,4.7,21-6.3,18.7C97.1,71.3,95.8,80.7,95.8,55z"/>
<path id="mouth" class="st1" d="M90.4,83.7h5.1c0,0,1.3,5.7-1.7,5.1S90.4,90.7,90.4,83.7z"/>
<polyline id="sunglasses" class="st2" points="42.9,49.7 63.6,64.4 95.8,64.4 115.4,64.4 137.9,48.7 "/>
</svg>
