<?xml version="1.0" encoding="utf-8"?>
<!-- Generator: Adobe Illustrator 22.1.0, SVG Export Plug-In . SVG Version: 6.00 Build 0)  -->
<svg version="1.1" id="alien10" xmlns="http://www.w3.org/2000/svg" xmlns:xlink="http://www.w3.org/1999/xlink" x="0px" y="0px"
	 viewBox="0 0 62.6 106.2" style="enable-background:new 0 0 62.6 106.2;" xml:space="preserve">
<style type="text/css">
	.st0{fill:#0AA527;stroke:#000000;stroke-width:4;stroke-miterlimit:10;}
	.st1{fill:#EAEF16;stroke:#000000;stroke-width:4;stroke-miterlimit:10;}
	.st2{fill:#FFFFFF;stroke:#000000;stroke-width:2;stroke-miterlimit:10;}
	.st3{fill:#020002;stroke:#000000;stroke-width:2;stroke-miterlimit:10;}
	.st4{fill:#FFFFFF;stroke:#000000;stroke-width:4;stroke-miterlimit:10;}
	.st5{fill:#0A7C20;stroke:#000000;stroke-width:4;stroke-miterlimit:10;}
</style>
<path id="body" class="st0" d="M58.4,72.7c0,14.5-12.2,26.2-27.4,26.2S3.7,87.2,3.7,72.7c0-9,4.7-16.9,11.9-21.7
	c4.4-2.9,9.7-4.6,15.5-4.6C46.1,46.4,58.4,58.2,58.4,72.7z"/>
<path id="hat" class="st1" d="M18.1,49.5c0,0,13.3-35,3.1-42.2L9.4,2H52l-9.9,6.1c0,0-6.7,39,1.8,41.4"/>
<ellipse id="left-eye" class="st2" cx="20.7" cy="69.7" rx="7.8" ry="7.5"/>
<ellipse id="right-eye" class="st2" cx="45.4" cy="70.3" rx="8.4" ry="8"/>
<ellipse id="left-pupil" class="st3" cx="20.4" cy="70" rx="2.8" ry="2.7"/>
<ellipse id="right-pupil" class="st3" cx="45.2" cy="71.1" rx="3.9" ry="3.7"/>
<ellipse id="mouth" class="st4" cx="26.7" cy="86.1" rx="6" ry="3"/>
<ellipse id="left-foot" class="st5" cx="13.1" cy="98.4" rx="10.4" ry="5.9"/>
<ellipse id="right-foot" class="st5" cx="50.2" cy="98.4" rx="10.4" ry="5.9"/>
</svg>
